# xmcd CD database file
#
# Track frame offsets:
#	150
#	18502
#	34300
#	57925
#
# Disc length: 1043 seconds
#
# Revision: 0
# Processed by: cddbd v1.4PL0 Copyright (c) Steve Scherf et al.
# Submitted via: CDex 1.50
#
DISCID=2e041104
DTITLE=Jake's Blues Band - Feel The Blues
DYEAR=1997
DGENRE=Blues
TTITLE0=Thoughts In The Train
TTITLE1=Jake's Boogie
TTITLE2=Leave My Girl Alone
TTITLE3=Keep On Playin'
EXTD=YEAR: 1997
EXTT0=
EXTT1=
EXTT2=
EXTT3=
PLAYORDER=
